<?xml version="1.0" encoding="iso-8859-1"?>
<!-- Generator: Adobe Illustrator 19.0.0, SVG Export Plug-In . SVG Version: 6.00 Build 0)  -->
<svg version="1.1" id="Capa_1" xmlns="http://www.w3.org/2000/svg" xmlns:xlink="http://www.w3.org/1999/xlink" x="0px" y="0px"
	 viewBox="0 0 511.999 511.999" style="enable-background:new 0 0 511.999 511.999;" xml:space="preserve">
<path style="fill:#D9B43A;" d="M333.134,189.766L71.454,449.679c49.399,49.55,113.242,66.08,142.598,36.923l261.68-259.913
	C446.376,255.847,382.532,239.316,333.134,189.766z"/>
<path style="fill:#BB9430;" d="M324.956,197.888c49.399,49.55,121.419,57.958,150.775,28.8s13.108-92.963-36.29-142.512
	s-113.242-66.08-142.598-36.923C267.487,76.412,275.558,148.339,324.956,197.888z"/>
<path style="fill:#E2C35A;" d="M287.695,38.078l0.97,17.298l17.325,1.053c23.826-23.665,80.725-6.773,124.25,36.885
	s60.168,100.534,36.342,124.199l0.97,17.298l17.325,1.053c34.964-34.728,19.047-105.371-36.239-160.826S322.66,3.35,287.695,38.078z
	"/>
<path style="fill:#AD712C;" d="M498.632,106.547l-77.972,77.446c-7.788,7.736-20.501,7.704-28.251-0.069l-4.329-4.342
	c-7.758-7.782-7.727-20.484,0.069-28.228l77.972-77.446c7.788-7.736,20.501-7.704,28.251,0.069l4.329,4.342
	C506.46,86.101,506.429,98.804,498.632,106.547z"/>
<path style="fill:#C98A2E;" d="M390.33,149.189c-8.272,8.216-8.951,21.256-2.053,30.278c3.716-1.014,7.226-2.951,10.138-5.844
	l73.597-73.101c8.272-8.216,8.951-21.256,2.053-30.278c-3.716,1.014-7.226,2.951-10.138,5.844L390.33,149.189z"/>
<path style="fill:#A7A951;" d="M440.999,47.395c12.519-1.63,26.052,11.961,24.359,24.463l-3.299,24.375l-3.299,24.375
	c-1.692,12.502-17.341,14.54-28.167,3.667l-21.107-21.197L388.377,81.88c-10.826-10.873-8.711-26.5,3.808-28.13l24.407-3.177
	L440.999,47.395z"/>
<path style="fill:#D1D274;" d="M436.705,90.078l3.299-24.375c0.834-6.159-2.037-12.575-6.652-17.313l-16.76,2.182l-24.407,3.177
	c-12.519,1.63-14.634,17.258-3.808,28.13l21.107,21.197l19.428,19.511c2.355-1.806,4.005-4.534,4.493-8.135L436.705,90.078z"/>
<path style="fill:#AD712C;" d="M425.405,49.42l-69.795,69.324c-7.788,7.736-20.501,7.704-28.251-0.069l-4.329-4.342
	c-7.758-7.782-7.727-20.484,0.069-28.228l69.795-69.324c7.788-7.736,20.501-7.704,28.251,0.069l4.329,4.342
	C433.232,28.974,433.201,41.677,425.405,49.42z"/>
<path style="fill:#C98A2E;" d="M325.28,83.939c-8.272,8.216-8.951,21.256-2.053,30.278c3.716-1.014,7.226-2.951,10.138-5.844
	l65.42-64.978c8.272-8.216,8.951-21.256,2.053-30.278c-3.716,1.014-7.226,2.951-10.138,5.844L325.28,83.939z"/>
<path style="fill:#A7A951;" d="M353.824,49.611c10.665-1.388,22.194,10.19,20.752,20.84l-2.811,20.765l-2.811,20.765
	c-1.442,10.651-14.773,12.386-23.996,3.124l-17.982-18.058l-17.982-18.058c-9.223-9.262-7.421-22.576,3.244-23.964l20.792-2.707
	L353.824,49.611z"/>
<path style="fill:#D1D274;" d="M350.166,85.973l2.811-20.765c0.71-5.247-1.735-10.713-5.667-14.749l-14.278,1.859l-20.792,2.707
	c-10.665,1.388-12.467,14.702-3.244,23.964l17.982,18.058l16.551,16.621c2.006-1.539,3.412-3.862,3.827-6.931L350.166,85.973z"/>
<path style="fill:#9B7099;" d="M463.835,108.645c-13.472-13.514-35.377-13.559-48.926-0.102s-13.611,35.322-0.139,48.835
	c13.472,13.514,35.377,13.559,48.926,0.102S477.307,122.158,463.835,108.645z"/>
<path style="fill:#B492AC;" d="M414.77,157.379c0.671,0.673,1.368,1.303,2.079,1.909c8.148-0.471,16.165-3.797,22.407-9.998
	c13.549-13.457,13.611-35.322,0.139-48.835c-0.671-0.673-1.368-1.303-2.079-1.909c-8.148,0.471-16.165,3.797-22.407,9.998
	C401.36,122.001,401.298,143.865,414.77,157.379z"/>
<path style="fill:#AB5034;" d="M387.609,37.86c-15.922-0.033-28.92,31.561-29.031,70.567s12.707,70.653,28.63,70.687
	c15.922,0.033,28.92-31.561,29.031-70.567C416.349,69.54,403.531,37.893,387.609,37.86z"/>
<path style="fill:#C95A3A;" d="M375.693,173.195c10.212-10.879,17.4-35.739,17.482-64.697S386.21,54.65,376.06,43.729
	c-10.212,10.879-17.4,35.739-17.482,64.697S365.543,162.274,375.693,173.195z"/>
<path style="fill:#AD712C;" d="M392.556,130.745l-69.795,69.324c-7.788,7.736-20.501,7.704-28.251-0.069l-4.329-4.342
	c-7.758-7.782-7.727-20.484,0.069-28.228l69.795-69.324c7.788-7.736,20.501-7.704,28.251,0.069l4.329,4.342
	C400.384,110.299,400.352,123.001,392.556,130.745z"/>
<path style="fill:#C98A2E;" d="M292.431,165.264c-8.272,8.216-8.951,21.256-2.053,30.278c3.716-1.014,7.226-2.951,10.138-5.844
	l65.42-64.978c8.272-8.216,8.951-21.256,2.053-30.278c-3.716,1.014-7.226,2.951-10.138,5.844L292.431,165.264z"/>
<path style="fill:#AD712C;" d="M343.676,114.365l-69.795,69.324c-7.788,7.736-20.501,7.704-28.251-0.069l-4.329-4.342
	c-7.758-7.782-7.727-20.484,0.069-28.228l69.795-69.324c7.788-7.736,20.501-7.704,28.251,0.069l4.329,4.342
	C351.503,93.919,351.472,106.621,343.676,114.365z"/>
<path style="fill:#C98A2E;" d="M243.551,148.884c-8.272,8.216-8.951,21.256-2.053,30.278c3.716-1.014,7.226-2.951,10.138-5.844
	l65.42-64.978c8.272-8.216,8.951-21.256,2.053-30.278c-3.716,1.014-7.226,2.951-10.138,5.844L243.551,148.884z"/>
<path style="fill:#AD712C;" d="M495.177,174.91l-69.795,69.324c-7.788,7.736-20.501,7.704-28.251-0.069l-4.329-4.342
	c-7.758-7.782-7.727-20.484,0.069-28.228l69.795-69.324c7.788-7.736,20.501-7.704,28.251,0.069l4.329,4.342
	C503.004,154.464,502.973,167.166,495.177,174.91z"/>
<path style="fill:#C98A2E;" d="M395.052,209.429c-8.272,8.216-8.951,21.256-2.053,30.278c3.716-1.014,7.226-2.951,10.138-5.844
	l65.42-64.978c8.272-8.216,8.951-21.256,2.053-30.278c-3.716,1.014-7.226,2.951-10.138,5.844L395.052,209.429z"/>
<path style="fill:#A7A951;" d="M419.581,153.117c10.665-1.388,22.194,10.19,20.752,20.84l-2.811,20.765l-2.811,20.765
	c-1.442,10.651-14.773,12.386-23.996,3.124l-17.982-18.058l-17.982-18.058c-9.223-9.262-7.421-22.576,3.244-23.964l20.792-2.707
	L419.581,153.117z"/>
<path style="fill:#D1D274;" d="M415.923,189.479l2.811-20.765c0.71-5.247-1.735-10.713-5.667-14.749l-14.278,1.859l-20.792,2.707
	c-10.665,1.388-12.467,14.702-3.244,23.964l17.982,18.058l16.551,16.621c2.006-1.539,3.412-3.862,3.827-6.931L415.923,189.479z"/>
<path style="fill:#9B7099;" d="M391.097,166.283c-15.718-15.766-39.443-17.637-52.992-4.18s-11.791,37.148,3.927,52.913
	s39.443,17.637,52.992,4.18S406.815,182.048,391.097,166.283z"/>
<path style="fill:#B492AC;" d="M342.032,215.016c0.783,0.785,1.591,1.526,2.411,2.242c8.784,0.167,17.188-2.771,23.431-8.971
	c13.549-13.458,11.791-37.148-3.927-52.913c-0.783-0.785-1.591-1.526-2.411-2.242c-8.784-0.167-17.188,2.771-23.431,8.971
	C324.556,175.561,326.314,199.251,342.032,215.016z"/>
<path style="fill:#E2C35A;" d="M26.016,297.991C-8.948,332.72,6.969,403.363,62.254,458.817
	c36.429,36.541,95.872,36.664,132.509,0.275l147.195-146.201c36.637-36.389,36.805-95.722,0.375-132.262
	c-43.525-43.658-60.168-100.534-36.342-124.199l-18.295-18.351L26.016,297.991z"/>
<path style="fill:#EBD37A;" d="M292.2,246.656c17.566-17.448,19.175-45.334,3.644-64.586c-0.653-0.809-1.239-1.558-1.744-2.233
	c-16.33-21.815-25.623-42.915-31.523-66.083c-0.037-0.147,0.201-0.017,0.164-0.163c-5.677-22.579-1.5-49.237,15.041-65.666
	L26.016,297.991c-31.453,31.241-21.731,91.545,20.785,143.71c2.403,2.948,4.911,5.871,7.522,8.761
	c0.025,0.028,0.052,0.057,0.079,0.087c8.427,9.24,22.908,9.547,31.788,0.727l197.833-196.498L292.2,246.656z"/>
<path style="fill:#E2C35A;" d="M394.42,217.711c-2.617-1.2-5.267-2.511-7.879-3.897c-6.325-3.355-14.183-0.953-17.549,5.359
	c-3.367,6.316-0.969,14.155,5.355,17.512c3.053,1.62,6.158,3.156,9.23,4.563c41.08,18.829,78.951,16.817,101.301-5.383
	l-18.295-18.351C452.445,231.557,424.794,231.632,394.42,217.711z"/>
<path d="M83.882,326.323c-3.389,3.378-3.391,8.852-0.005,12.227c3.387,3.375,8.879,3.373,12.269-0.005
	c3.389-3.378,3.391-8.852,0.005-12.227S87.271,322.946,83.882,326.323z"/>
<path d="M78.954,380.124c-3.389,3.378-3.391,8.852-0.004,12.227c3.386,3.375,8.879,3.373,12.269-0.004
	c3.389-3.378,3.391-8.852,0.005-12.227C87.836,376.745,82.344,376.747,78.954,380.124z"/>
<path d="M147.669,350.753c-3.389,3.378-3.391,8.852-0.005,12.227s8.879,3.373,12.269-0.005c3.389-3.378,3.391-8.852,0.005-12.227
	C156.551,347.374,151.059,347.376,147.669,350.753z"/>
<path d="M50.339,349.975c-3.389,3.378-3.391,8.852-0.004,12.227c3.386,3.375,8.879,3.373,12.269-0.005
	c3.389-3.378,3.391-8.852,0.004-12.227S53.728,346.598,50.339,349.975z"/>
<path d="M99.45,252.14c-3.389,3.378-3.391,8.852-0.004,12.227c3.386,3.375,8.879,3.373,12.269-0.005
	c3.389-3.378,3.391-8.852,0.005-12.227C108.332,248.76,102.84,248.762,99.45,252.14z"/>
<path d="M193.497,284.71c-3.387-3.375-8.879-3.373-12.269,0.005s-3.391,8.852-0.005,12.227s8.879,3.373,12.269-0.005
	C196.882,293.559,196.884,288.085,193.497,284.71z"/>
<path d="M177.164,219.505c-3.386-3.375-8.879-3.373-12.269,0.005c-3.389,3.378-3.391,8.852-0.004,12.227
	c3.386,3.375,8.879,3.373,12.269-0.005C180.548,228.354,180.55,222.88,177.164,219.505z"/>
<path d="M283.49,223.541c3.389-3.378,3.391-8.852,0.005-12.227s-8.879-3.373-12.269,0.005c-3.389,3.378-3.391,8.852-0.005,12.227
	C274.608,226.92,280.101,226.918,283.49,223.541z"/>
<path d="M511.979,184.064c-0.171-8.651-1.459-17.648-3.775-26.818c-0.334-4.542-1.655-8.878-3.86-12.763
	c-2.718-7.73-6.135-15.525-10.238-23.294l8.533-8.504c5.775-5.755,8.955-13.432,8.955-21.618s-3.18-15.864-8.955-21.618
	c-8.053-8.027-19.559-10.654-29.887-7.772c-1.371-5.013-4.202-9.877-8.272-13.95c-6.756-6.76-15.69-10.146-23.896-9.06l-2.994,0.397
	c1.578-9.465-1.335-19.467-8.541-26.648c-11.93-11.89-31.343-11.89-43.274,0l-6.736,6.714c-17.819-6.308-35.38-8.901-51.059-7.491
	c-18.143,1.632-33.875,8.616-45.494,20.196L20.658,292.78C7.144,306.249,0,324.914,0,346.758c0,37.83,21.459,81.801,57.403,117.624
	c19.767,19.7,45.728,29.548,71.702,29.547c3.308,0,6.615-0.162,9.911-0.482c-0.094,0.228-0.179,0.462-0.252,0.704
	c-1.197,3.966,1.047,8.151,5.012,9.348c11.097,3.351,21.729,5.002,31.6,5.002c18.258,0,33.893-5.655,44.939-16.665L453.841,259.1
	c14.741-2.713,27.562-9.136,37.5-19.04C505.295,226.153,512.431,206.791,511.979,184.064z M493.293,159.447
	c0,0.031,0.004,0.062,0.004,0.093c0,4.169-1.614,8.073-4.543,10.993l-49.123,48.957c-9.361,0.382-20.311-1.53-31.907-5.72
	c0.671-0.672,1.239-1.468,1.627-2.399c6.529-15.642,2.488-34.942-9.986-48.99l21.969-2.911c4.146-0.551,9.604,3.239,11.704,8.104
	c0.656,1.521,0.913,3.004,0.741,4.291l-2.768,20.803c-0.546,4.106,2.34,7.878,6.445,8.424c0.336,0.044,0.669,0.066,0.999,0.066
	c3.702,0,6.923-2.742,7.425-6.512l2.768-20.802c0.308-2.312,0.21-4.708-0.256-7.096l18.264-18.202
	c2.373-2.365,5.422-3.868,8.817-4.347c4.964-0.702,9.806,0.884,13.281,4.348c0.752,0.75,1.414,1.566,1.987,2.433
	C491.705,153.822,492.549,156.644,493.293,159.447z M348.229,174.465c-23.252-23.173-39.567-51.581-44.119-75.779l10.437-10.401
	c0.477-0.475,1.049-0.953,1.799-1.503c6.174-4.524,14.901-3.878,20.3,1.503c5.391,5.372,6.039,14.054,1.509,20.192
	c-0.551,0.746-1.03,1.315-1.509,1.792c-2.935,2.924-2.942,7.673-0.019,10.607c1.465,1.471,3.389,2.206,5.313,2.206
	c1.915,0,3.83-0.729,5.294-2.188c0.256-0.255,0.509-0.519,0.761-0.792c0.07-0.076,0.139-0.159,0.209-0.236
	c0.183-0.203,0.365-0.405,0.547-0.619c0.003-0.004,0.007-0.008,0.01-0.012c0.033-0.024,0.063-0.057,0.095-0.081
	c0.287-0.214,0.567-0.443,0.828-0.703l13.926-13.878c0.103-0.101,0.212-0.19,0.319-0.283l0.349-0.307
	c6.179-5.492,15.595-5.236,21.435,0.585c2.93,2.92,4.543,6.824,4.543,10.993s-1.613,8.072-4.543,10.991l-18.558,18.496
	c-1.457-0.177-2.926-0.283-4.4-0.323c-0.161-0.014-0.322-0.029-0.485-0.032c-0.186-0.002-0.362-0.001-0.565,0.004
	c-0.011,0-0.022,0.002-0.034,0.002c-0.58,0-1.154,0.007-1.729,0.027h-0.005c-0.001,0-0.004,0-0.005,0h-0.006l-0.104,0.004
	c0,0-0.006,0-0.009,0c-0.05,0.002-0.099,0.004-0.149,0.005c-0.229,0.009-0.459,0.018-0.688,0.031l-0.006,0.001
	c-0.277,0.016-0.553,0.036-0.828,0.058c-0.333,0.027-0.664,0.058-0.996,0.091h-0.007l-0.196,0.019c-0.006,0-0.012,0.001-0.012,0.001
	l-0.011,0.001c-0.236,0.022-0.471,0.046-0.706,0.075c-0.001,0-0.002,0-0.002,0h-0.004c-0.003,0-0.007,0.001-0.007,0.001
	c-0.01,0.001-0.017,0.003-0.024,0.004c-0.646,0.079-1.285,0.18-1.923,0.289c-0.001,0-0.003,0.001-0.003,0.001h-0.002l-0.13,0.02
	c-0.217,0.034-0.435,0.068-0.648,0.109c-4.067,0.779-6.745,4.709-5.967,8.777c0.687,3.593,3.821,6.096,7.348,6.096
	c0.465,0,0.938-0.043,1.412-0.134l0.519-0.083c0.001,0,0.002-0.001,0.004-0.001c0.415-0.071,0.83-0.139,1.251-0.191l0.005-0.001l0,0
	l0.594-0.059c0.386-0.039,0.772-0.074,1.157-0.097c0.017-0.001,0.034-0.003,0.051-0.004l0,0c0.172-0.01,0.346-0.016,0.52-0.022
	l0.096-0.003h0.004c0.349-0.013,0.7-0.018,1.05-0.018c0.058,0,0.119-0.004,0.176-0.003l0.326,0.005
	c2.072,0.033,4.136,0.269,6.133,0.699c3.17,0.684,6.296,1.846,9.293,3.454c3.311,1.777,6.362,4.047,9.071,6.745
	c9.967,9.934,13.581,23.995,8.992,34.99c-0.374,0.897-0.554,1.824-0.572,2.74c-1.364-0.665-2.728-1.352-4.084-2.066
	c-6.754-3.555-14.618-2.945-20.643,0.896C365.185,195.076,357.778,183.982,348.229,174.465z M310.899,61.398
	c0.81,0.17,1.659,0.215,2.527,0.099l41.696-5.524c0.851-0.112,1.79-0.04,2.788,0.215c0.603,0.155,1.212,0.381,1.816,0.659
	c-3.135,8.314-5.455,18.121-6.803,28.717c-1.429-2.872-3.326-5.55-5.689-7.905c-10.582-10.548-27.673-11.829-39.756-2.976
	c-1.357,0.996-2.509,1.969-3.519,2.976l-0.628,0.626C304.346,71.329,306.882,65.673,310.899,61.398z M403.491,65.745
	c1.711,5.267,3.08,11.137,4.069,17.446c1.149,7.332,1.76,15.076,1.813,23.019l0.013,1.194c-0.002,5.37-0.263,10.721-0.775,15.901
	c-0.84,8.468-2.323,16.29-4.398,23.301l-20.032,2.654l12.122-12.081c5.774-5.754,8.955-13.431,8.955-21.616
	c0-8.186-3.18-15.864-8.955-21.619c-7.635-7.61-18.38-10.366-28.281-8.172c1.513-10.934,4.153-20.732,7.709-28.357
	c3.806-8.159,8.506-13.228,12.268-13.23H388C392.226,44.186,398.653,50.852,403.491,65.745z M492.052,80.076
	c2.93,2.919,4.543,6.823,4.543,10.991c0,4.169-1.613,8.073-4.543,10.993l-13.204,13.16c-2.094-4.863-5.102-9.331-8.926-13.142
	c-0.138-0.137-0.293-0.27-0.434-0.407l3.154-23.708C478.714,74.11,486.814,74.856,492.052,80.076z M442.555,53.539
	c3.557-0.472,7.89,1.365,11.315,4.793c3.403,3.405,5.227,7.705,4.759,11.221l-0.447,3.357c0,0.002,0,0.003,0,0.005l-2.632,19.784
	c-3.587-1.407-7.367-2.331-11.255-2.717c-4.119-0.407-7.795,2.6-8.204,6.723c-0.409,4.122,2.601,7.795,6.722,8.205
	c5.158,0.512,10.027,2.464,14.084,5.648c0.899,0.706,1.696,1.407,2.437,2.145c4.729,4.714,7.536,10.975,7.902,17.63
	c0.01,0.181,0.01,0.363,0.016,0.544c-4.189,1.497-7.991,3.865-11.182,7.046l-15.092,15.04c-5.582-5.763-13.3-9.084-20.697-8.438
	c1.469-6.177,2.566-12.777,3.257-19.739c0.561-5.67,0.847-11.516,0.849-17.378c0-0.281-0.004-0.56-0.008-0.839l-0.005-0.46
	c-0.058-8.683-0.729-17.175-1.994-25.241c-0.844-5.381-1.944-10.505-3.28-15.296l9.951-9.917c0.121-0.121,0.241-0.248,0.362-0.373
	L442.555,53.539z M418.462,23.043c5.553,5.534,6.091,14.369,1.253,20.546c-0.467,0.595-0.864,1.052-1.253,1.439l-5.075,5.058
	c-6.082-12.62-14.118-19.841-23.299-20.788l6.275-6.254C402.456,16.972,412.369,16.971,418.462,23.043z M67.991,453.756
	C34.81,420.687,15,380.688,15,346.758c0-17.769,5.618-32.76,16.246-43.352L293.074,42.462
	c16.452-16.395,43.583-20.421,74.032-11.439l-9.973,9.94c-1.342-0.074-2.673-0.034-3.982,0.139l-29.162,3.863
	c-0.264-0.952-0.72-1.868-1.379-2.687c-2.594-3.228-7.315-3.744-10.544-1.149l-10.587,8.507c-0.209,0.167-0.407,0.346-0.597,0.534
	c-8.544,8.515-13.061,20.788-13.061,35.491c0,30.705,19.09,68.804,49.819,99.429c16.283,16.229,25.251,37.847,25.251,60.872
	c0,23.052-8.985,44.702-25.302,60.963l-147.278,146.78c-16.88,16.823-39.044,25.234-61.207,25.233
	C106.97,478.938,84.836,470.544,67.991,453.756z M209.728,481.209c-11.962,11.923-31.965,15.307-55.504,9.588
	c17.113-4.328,33.312-13.146,46.677-26.466l147.278-146.78c19.161-19.096,29.714-44.52,29.714-71.588
	c0-7.723-0.863-15.31-2.536-22.655c0.394-0.441,0.747-0.93,1.037-1.475c1.426-2.683,4.78-3.709,7.47-2.292
	c2.754,1.45,5.547,2.821,8.304,4.075c16.016,7.281,31.463,10.906,45.018,10.906c1.85,0,3.665-0.068,5.441-0.203
	c0.088,0.003,0.177,0.013,0.265,0.013c0.566,0,1.131-0.072,1.685-0.199c11.511-1.219,21.296-5.356,28.371-12.407
	c2.935-2.924,2.942-7.673,0.019-10.607c-0.646-0.649-1.385-1.146-2.17-1.509l26.155-26.067c0.008,0.272,0.027,0.548,0.032,0.82
	c0.368,18.538-5.243,34.123-16.229,45.071c-13.439,13.392-34.087,18.712-58.137,14.983c-4.096-0.63-7.926,2.17-8.561,6.263
	s2.169,7.926,6.262,8.562c3.726,0.578,7.382,0.947,10.976,1.152L209.728,481.209z"/>
<g>
</g>
<g>
</g>
<g>
</g>
<g>
</g>
<g>
</g>
<g>
</g>
<g>
</g>
<g>
</g>
<g>
</g>
<g>
</g>
<g>
</g>
<g>
</g>
<g>
</g>
<g>
</g>
<g>
</g>
</svg>
