<?xml version="1.0" encoding="iso-8859-1"?>
<!-- Generator: Adobe Illustrator 19.0.0, SVG Export Plug-In . SVG Version: 6.00 Build 0)  -->
<svg version="1.1" id="Capa_1" xmlns="http://www.w3.org/2000/svg" xmlns:xlink="http://www.w3.org/1999/xlink" x="0px" y="0px"
	 viewBox="0 0 512 512" style="enable-background:new 0 0 512 512;" xml:space="preserve">
<circle style="fill:#3DE000;" cx="256" cy="256" r="256"/>
<path style="fill:#00CC00;" d="M512,256c0-23.124-3.084-45.524-8.832-66.832L419,105L101,389.667l119.932,119.932
	C232.399,511.17,244.102,512,256,512C397.385,512,512,397.385,512,256z"/>
<rect x="101" y="136.33" style="fill:#FFFFFF;" width="318" height="253.33"/>
<rect x="255.57" y="136.33" style="fill:#EBEBF0;" width="163.43" height="253.33"/>
<rect x="101" y="136.33" style="fill:#E6E6E6;" width="96" height="253.33"/>
<g>
	<rect x="101" y="354" style="fill:#D7D7D7;" width="96" height="35.667"/>
	<rect x="101" y="286.31" style="fill:#D7D7D7;" width="96" height="35.667"/>
	<rect x="101" y="218.62" style="fill:#D7D7D7;" width="96" height="35.667"/>
	<rect x="101" y="150.93" style="fill:#D7D7D7;" width="96" height="35.667"/>
</g>
<rect x="101" y="105" style="fill:#4B5568;" width="318" height="47.33"/>
<rect x="255.57" y="105" style="fill:#323750;" width="163.43" height="47.33"/>
<rect x="228.8" y="220.02" style="fill:#FFB13B;" width="158.2" height="105.89"/>
<g>
	<rect x="307.36" y="220.02" style="fill:#FF9500;" width="79.64" height="105.89"/>
	<path style="fill:#FF9500;" d="M387,325.912l-59.049-55.239c-11.282-10.554-28.815-10.554-40.098,0l-59.049,55.24L387,325.912z"/>
</g>
<path style="fill:#E88105;" d="M327.951,270.672c-5.783-5.41-13.209-8.04-20.594-7.903v63.143H387L327.951,270.672z"/>
<path style="fill:#FA5D0F;" d="M228.804,220.023l57.14,53.453c12.357,11.56,31.56,11.56,43.916,0L387,220.023H228.804z"/>
<path style="fill:#D84C0F;" d="M307.357,220.022v62.111c8.071,0.136,16.182-2.744,22.503-8.657L387,220.022H307.357z"/>
<g>
	<circle style="fill:#5F6C75;" cx="391.33" cy="128.67" r="13"/>
	<circle style="fill:#5F6C75;" cx="352.08" cy="128.67" r="13"/>
	<circle style="fill:#5F6C75;" cx="313.42" cy="128.67" r="13"/>
</g>
<g>
</g>
<g>
</g>
<g>
</g>
<g>
</g>
<g>
</g>
<g>
</g>
<g>
</g>
<g>
</g>
<g>
</g>
<g>
</g>
<g>
</g>
<g>
</g>
<g>
</g>
<g>
</g>
<g>
</g>
</svg>
