<svg id="Capa_1" enable-background="new 0 0 512 512" height="512" viewBox="0 0 512 512" width="512" xmlns="http://www.w3.org/2000/svg"><g><g><path d="m377.038 422.363 21.293 49.277-21.293 32.857h-49.218l-16.654-57.434z" fill="#b08bd7"/><path d="m134.962 422.363-21.293 49.277 21.293 32.857h49.218l16.654-57.434z" fill="#b08bd7"/><path d="m227.26 504.5h57.48l26.426-57.437-26.426-74.675h-57.48l-26.426 74.675z" fill="#ffb5ec"/><path d="m45.483 233.14c0-116.08 94.438-210.517 210.517-210.517 116.08 0 210.517 94.438 210.517 210.517z" fill="#00d1b3"/><g fill="#ffbe9c"><circle cx="426.191" cy="243.221" r="46.259"/><circle cx="85.809" cy="243.221" r="46.259"/></g><path d="m284.74 372.388v132.112h43.077c-.464-.008 6.916-22.252 7.57-23.977 5.145-13.57 12.489-25.05 21.861-36.234 9.213-10.995 20.423-20.595 27.748-33.064 14.399-24.509 8.513-51.267-11.224-71.004z" fill="#bc9bdd"/><path d="m227.26 372.388v132.112s-43.002 0-43.077 0c.464-.008-6.916-22.252-7.57-23.977-5.145-13.57-12.489-25.05-21.861-36.234-9.213-10.995-20.423-20.595-27.748-33.064-14.399-24.509-8.513-51.267 11.224-71.004z" fill="#bc9bdd"/><circle cx="256" cy="233.14" fill="#ffd3bc" r="170.191"/><path d="m369.734 38.314c-33.416-19.583-72.287-30.814-113.734-30.814-72.506 0-137.13 34.375-178.44 87.686-6.531 8.429-4.64 20.606 4.078 26.747 34.492 24.295 84.666 39.684 137.272 39.684 65.612 0 127.435-33.439 159.782-74.693 12.258-15.635 8.182-38.566-8.958-48.61z" fill="#50e1cd"/><path d="m426.196 504.497h-49.157v-82.134c-.001 0 49.157 25.849 49.157 82.134z" fill="#ffb5ec"/><path d="m85.804 504.497h49.157v-82.134c.001 0-49.157 25.849-49.157 82.134z" fill="#ffb5ec"/><path d="m123.516 215.222c0-46.249 14.946-89.308 40.655-125.396-47.134 30.263-78.363 83.142-78.363 143.315 0 83.853 60.643 153.537 140.463 167.599-62.323-41.964-102.755-109.429-102.755-185.518z" fill="#ffbe9c"/><path d="m266.11 7.731c-3.352-.148-6.722-.231-10.11-.231-72.506 0-137.13 34.375-178.44 87.686-6.531 8.429-4.64 20.606 4.078 26.747 14.997 10.563 32.961 19.44 52.798 26.103 20.609-61.776 68.886-112.551 131.674-140.305z" fill="#00d1b3"/><g><g><g><ellipse cx="149.825" cy="263.123" fill="#ff9db0" rx="39.176" ry="31.198"/></g><g><ellipse cx="362.175" cy="263.123" fill="#ff9db0" rx="39.176" ry="31.198"/></g></g></g></g><g><path d="m172.633 240.591c4.142 0 7.5-3.358 7.5-7.5v-16.015c0-4.142-3.358-7.5-7.5-7.5s-7.5 3.358-7.5 7.5v16.015c0 4.142 3.358 7.5 7.5 7.5z"/><path d="m339.319 240.591c4.142 0 7.5-3.358 7.5-7.5v-16.015c0-4.142-3.358-7.5-7.5-7.5s-7.5 3.358-7.5 7.5v16.015c0 4.142 3.358 7.5 7.5 7.5z"/><path d="m255.976 250.124c10.588 0 20.658-4.586 27.627-12.583 2.721-3.123 2.396-7.86-.727-10.582-3.122-2.722-7.86-2.396-10.582.727-4.119 4.727-10.067 7.438-16.319 7.438s-12.199-2.711-16.319-7.438c-2.721-3.122-7.459-3.448-10.582-.727s-3.448 7.459-.727 10.582c6.97 7.997 17.04 12.583 27.629 12.583z"/><path d="m90.082 296.794c7.434 19.307 18.136 37.004 31.44 52.397-13.877 22.243-13.78 48.025 2.464 71.185-14.681 10.175-45.706 37.226-45.706 84.123 0 4.142 3.358 7.5 7.5 7.5 37.813 0 305.951.004 340.392 0 4.142 0 7.5-3.358 7.5-7.5 0-46.897-31.025-73.948-45.706-84.123 16.207-23.109 16.373-48.89 2.464-71.185 13.304-15.393 24.007-33.09 31.44-52.397 42.854 3.417 71.694-42.196 51.547-79.197-1.715-24.214-7.419-47.793-16.987-70.106-1.632-3.808-6.044-5.569-9.849-3.938-3.807 1.633-5.57 6.042-3.938 9.849 6.233 14.536 10.71 29.651 13.383 45.14-8.498-5.698-18.253-8.664-27.771-9.038-8.388-33.161-26.413-63.825-52.528-87.619 5.64-6.072 11.747-12.963 14.759-20.674 15.4 13.638 28.579 29.436 39.273 47.096 2.145 3.542 6.756 4.676 10.3 2.531 3.543-2.146 4.676-6.757 2.531-10.3-13.129-21.682-29.755-40.741-49.438-56.712-.895-13.806-8.606-25.51-19.65-31.982-35.548-20.833-76.188-31.844-117.526-31.844-35.573 0-69.771 7.863-101.646 23.37-3.725 1.812-5.275 6.3-3.463 10.025s6.301 5.277 10.025 3.463c29.813-14.504 61.804-21.858 95.084-21.858 38.674 0 76.692 10.299 109.942 29.785 8.38 4.912 12.629 13.678 12.309 22.584-.87 24.849-68.523 82.01-149.263 86.461-46.531 2.513-103.938-10.601-143.032-38.028-5.253-3.708-6.366-10.991-2.468-16.021 14.449-18.646 31.736-34.778 51.383-47.949 3.441-2.306 4.36-6.965 2.054-10.406-2.306-3.44-6.965-4.36-10.406-2.053-20.985 14.067-39.452 31.3-54.888 51.22-6.734 8.69-7.163 20.231-1.817 29.305-18.029 29.56-28.791 63.18-31.244 97.681-4.157 7.626-6.521 16.364-6.521 25.644.001 31.027 26.471 56.089 58.057 53.571zm-9.197-166.268c6.216 4.156 13.773 8.593 21.866 12.615-8.024 13.481-14.764 29.451-19.054 46.362-9.528.369-19.259 3.337-27.753 9.028 4.149-23.916 12.604-47.013 24.941-68.005zm284.169-18.07c40.872 37.009 60.095 91.837 51.714 145.553-18.23 118.346-154.038 175.077-248.431 112.148-75.797-48.651-96.253-146.947-51.842-220.763 89.945 37.32 186.866 19.403 248.559-36.938zm-145.318 384.545h-29.851c-1.272-4.112-2.376-7.651-4.852-14.961-13.324-39.837-39.442-53.942-51.586-74.613-8.807-14.992-9.14-31.643-1.209-46.781 22.993 22.279 53.383 39.38 87.498 46.471zm-134.647-215.026c-21.052-.372-38.063-17.614-38.063-38.753 0-19.354 14.332-35.739 33.513-38.392-4.243 26.791-2.288 53.198 4.55 77.145zm42.348 154.589v60.434h-33.838c2.129-24.752 15.097-45.426 33.838-60.434zm15 5.208c20.663 22.23 25.275 35.242 31.716 55.226h-31.716zm92.299-32.208c13.693 1.634 28.228 1.713 42.48 0v87.437h-42.48zm57.48-2.447c31.531-6.558 62.609-22.354 87.498-46.471 7.932 15.137 7.598 31.789-1.209 46.781-2.128 3.622-4.646 7.001-7.395 10.3-26.408 31.683-34.272 31.555-49.043 79.275h-29.851zm45.583 89.881c7.593-23.634 12.507-34.53 31.715-55.226v55.226zm80.546 0h-33.831v-60.431c12.383 9.942 31.139 29.812 33.831 60.431zm8.517-215.023c6.971-24.411 8.734-51.052 4.544-77.146 18.897 2.611 33.52 18.776 33.52 38.393 0 21.139-17.011 38.381-38.064 38.753z"/></g></g></svg>