<?xml version="1.0" encoding="iso-8859-1"?>
<!-- Generator: Adobe Illustrator 19.0.0, SVG Export Plug-In . SVG Version: 6.00 Build 0)  -->
<svg version="1.1" id="Capa_1" xmlns="http://www.w3.org/2000/svg" xmlns:xlink="http://www.w3.org/1999/xlink" x="0px" y="0px"
	 viewBox="0 0 362.076 362.076" style="enable-background:new 0 0 362.076 362.076;" xml:space="preserve">
<path style="fill:#AC6635;" d="M226,246.838c-31.6,0-78.8-5.6-122.4-32c-62-37.6-83.6-83.6-88.8-96.8l-0.4-1.6l0.4-1.6
	c0.8-2,1.6-3.6,2.4-5.2c0-0.4,0-0.4,0.4-0.4v-0.4l2.8-5.2v-0.4l0.4-0.8c2.8-4.8,6.4-10,10.4-14.4l5.2-5.2c4-3.6,9.2-8,14.8-11.2
	l0.8-0.4h0.4l3.6-1.6c0.4-0.4,0.8-0.4,0.8-0.4l0.4-0.4l0.4-0.4c0.8-0.4,2-0.8,2.8-1.2s1.2-0.4,2-0.8l0.8-0.4h0.4
	c0.4,0,0.8-0.4,1.2-0.4c1.2-0.4,2.4-0.8,3.6-1.2c1.2-0.4,2.8-0.8,4-1.2c0.8-0.4,1.6-0.4,2.4-0.4c0.4,0,0.8,0,1.2-0.4l0.8-0.4
	c0.8-0.4,2-0.8,3.2-0.8c1.6-0.4,3.2-0.8,4.4-0.8c1.2-0.4,2.4-0.4,3.2-0.4c2.8-0.4,5.6-0.4,8-0.4c18.4,0,32.8,3.6,42.8,11.2
	c15.6,12,39.6,19.2,62.8,19.2c7.6,0,16-1.2,22.8-3.2c6.4-2,14-2.8,24.4-2.8c3.2,0,6.4,0,10,0.4c0.8,0,1.6,0,2,0.4c0.4,0,0.4,0,0.8,0
	c2.4,0,4.8,0.4,6.8,0.8h0.4h0.4c0.4,0,0.8,0,1.2,0.4c0.8,0,1.6,0.4,2,0.4c1.2,0.4,2,0.4,3.2,0.8c0.8,0.4,1.6,0.4,2.4,0.8h0.4
	l3.6,1.2l6.4,2.4c0.8,0.4,1.2,0.4,1.2,0.4c0.8,0.4,1.2,0.4,1.6,0.8c2.8,1.2,5.6,2.4,8.4,4l0.4,0.4l0.4,0.4c0.4,0.4,0.8,0.4,1.2,0.8
	c0.8,0.4,2,1.2,3.2,2s2,1.2,3.2,2l0.4,0.4l0.4,0.4c0.8,0.8,0.8,0.8,0.8,0.8h0.4l6.8,5.2l0.4,0.4c0.4,0.4,0.8,0.8,0.8,0.8
	c0.8,0.8,2,1.6,2.8,2.8c1.2,0.8,2,2,3.2,2.8l1.2,1.2c6.4,6.4,12,14,17.6,23.6l0.4,0.8v0.4l0.4,0.4c1.2,2,2.4,4.4,3.6,6.8
	c0,0.4,0.4,0.8,0.8,1.6c0,0.4,0.4,0.8,0.4,1.2l2.4,6.4c0.4,0.8,0.4,1.2,0.4,1.6h3.6l-1.6,5.2c-14,42.8-54.4,75.6-99.2,80
	c-0.4,0-1.2,0-2,0C248,245.638,238.8,246.838,226,246.838z"/>
<path style="fill:#B97D58;" d="M120.4,213.638c-59.2-36-80.8-79.6-87.2-94.8c0.8-1.6,1.6-3.6,2.4-5.2c0-0.4,0.4-0.8,0.4-1.2
	c0.8-1.6,1.6-3.2,2.4-4.8c0-0.4,0.4-0.4,0.4-0.8c2.8-4.8,6.4-9.6,10-13.6c0.4-0.4,0.4-0.4,0.8-0.8c1.2-1.2,2.4-2.4,3.6-3.6
	c0.4-0.4,0.4-0.4,0.8-0.8c4.4-4,8.8-7.2,14-10.4c0,0,0,0,0.4,0c1.6-0.8,3.2-1.6,4.8-2.4c0.4-0.4,0.8-0.4,1.2-0.8
	c1.6-0.8,3.2-1.6,4.8-2c0.4,0,0.8-0.4,1.2-0.4c2.4-0.8,5.2-2,8-2.4c1.2-0.4,2.4-0.8,3.6-0.8c1.2-0.4,2-0.4,3.2-0.8
	c1.6-0.4,2.8-0.4,4.4-0.8c0.8,0,1.6-0.4,2.4-0.4c-2.8-0.4-6-0.4-9.2-0.4c-2.4,0-4.8,0-7.6,0.4c-0.8,0-1.6,0-2.8,0.4
	c-1.6,0-3.2,0.4-4.4,0.8c-1.2,0-2,0.4-3.2,0.8c-1.2,0.4-2.4,0.4-3.6,0.8c-2.8,0.8-5.2,1.6-8,2.4c-0.4,0-0.8,0.4-1.2,0.4
	c-1.6,0.8-3.2,1.2-4.8,2c-0.4,0.4-0.8,0.4-1.2,0.8c-1.6,0.8-3.2,1.6-4.8,2.4c0,0,0,0-0.4,0c-5.2,2.8-9.6,6.4-14,10.4
	c-0.4,0.4-0.4,0.4-0.8,0.8c-1.2,1.2-2.4,2.4-3.6,3.6c-0.4,0.4-0.4,0.4-0.8,0.8c-3.6,4-7.2,8.8-10,13.6c0,0.4-0.4,0.4-0.4,0.8
	c-0.8,1.6-1.6,3.2-2.4,4.8c0,0.4-0.4,0.8-0.4,1.2c-0.8,1.6-1.6,3.2-2.4,5.2c6,15.2,28,58.8,87.2,94.8c42.8,26,89.2,31.6,120.4,31.6
	c3.2,0,6,0,8.4,0C201.2,244.438,159.2,237.638,120.4,213.638z"/>
<path style="fill:#AC6635;" d="M224.8,302.438c-31.6,0-78.8-5.6-122.4-32c-65.2-40-94.8-96.4-94.8-123.6c0-4.8,0.4-9.2,1.2-14
	l2-11.6l5.2,10.4c16.4,32,47.6,63.2,84.4,86c44,26.8,92,32.8,124.4,32.8c13.6,0,23.2-1.2,26.8-1.6c1.2,0,1.6,0,2,0
	c38.8-3.6,75.6-29.2,93.2-64.4l7.6,1.6c0,0.8,0,1.6,0,2.4c0,1.6,0,3.2,0,4.8c-0.4,53.6-46,102-102.4,107.6h-0.4c0,0-0.8,0-1.6,0
	C246.8,301.238,237.6,302.438,224.8,302.438z"/>
<path style="fill:#B97D58;" d="M117.2,266.838c-60-36.4-88.8-86.4-92.4-114.4c-4.4-6.4-8.4-12.4-11.6-18.8
	c-0.8,4.4-1.2,8.8-1.2,13.2c0,26.4,28.8,80.8,92.8,120c42.8,26,89.2,31.6,120.4,31.6c2,0,4,0,6,0
	C200.4,297.638,157.2,291.638,117.2,266.838z"/>
<g>
	<path style="fill:#561900;" d="M358.8,164.438c0-0.4,0-0.8,0-1.2c-0.4-0.8-0.4-1.6-0.8-2.4c-0.4-1.2-0.8-2.4-1.2-4
		c-0.8-2.4-1.6-4.4-2.4-6.8c-0.4-1.2-0.8-2-1.2-3.2c-1.2-2.8-2.4-5.2-4-8c-0.4-0.4-0.4-0.8-0.8-1.2c-3.6-6.4-7.6-12.4-12-18
		l-0.4-0.4c-2-2.4-4.4-4.8-6.4-7.2c-0.4-0.4-1.2-1.2-1.6-1.6c-2-2-4-3.6-6-5.6c-0.8-0.4-1.6-1.2-2-1.6c-2-1.6-4-3.2-6.4-4.8
		c-0.8-0.4-1.6-1.2-2.4-1.6c-2.4-1.6-5.2-3.2-7.6-4.8c-0.4-0.4-0.8-0.4-1.2-0.8c-2.8-1.6-6-3.2-9.2-4.4c-1.2-0.4-2.4-0.8-3.6-1.6
		c-2-0.8-4-1.6-6-2.4c-1.6-0.4-2.8-0.8-4.4-1.2c-2-0.4-4-1.2-6-1.6c-1.6-0.4-2.8-0.8-4.4-0.8c-2.4-0.4-4.4-0.8-6.8-1.2
		c-1.2,0-2.4-0.4-3.6-0.4c-3.6-0.4-7.2-0.4-10.8-0.4c-10.4,0-18.8,0.8-26.4,3.2c-6.4,1.6-13.2,2.8-21.2,2.8
		c-21.2,0-44-6.8-58.4-17.6c-11.6-8.4-26.8-12.8-47.2-12.8c-2.8,0-5.6,0-8.4,0.4c-1.2,0-2,0.4-3.2,0.4c-1.6,0.4-3.2,0.4-5.2,0.8
		c-1.2,0.4-2.4,0.4-4,0.8c-1.2,0.4-2.4,0.8-3.6,0.8c-5.6,1.6-11.2,3.6-16.4,6c-0.4,0.4-1.2,0.4-1.6,0.8c-1.6,0.8-3.6,2-5.2,2.8
		c-0.4,0.4-0.8,0.4-1.2,0.8c-5.6,3.6-10.8,7.2-15.6,12c-0.4,0-0.4,0.4-0.8,0.4c-1.2,1.2-2.8,2.8-4,4c-0.4,0.4-0.8,1.2-1.6,1.6
		c-1.2,1.2-2.4,2.8-3.6,4.4c-0.4,0.4-0.8,1.2-1.2,1.6c-4,5.2-7.2,10.4-10,16.4c0,0.4-0.4,0.8-0.4,1.2c-0.8,2-1.6,3.6-2.4,5.6
		c0,0.4-0.4,0.4-0.4,0.8l0,0c-3.6,10-5.6,20.8-5.6,32c0,33.6,34.4,90.4,98.4,129.6c45.2,27.6,93.6,33.2,126.4,33.2
		c16.8,0,27.6-1.6,28.8-1.6c60-6,108.4-57.6,108.4-115.2C362.4,183.238,361.2,173.638,358.8,164.438z M20,111.638
		c0-0.4,0.4-0.8,0.4-1.2c0.8-1.6,1.6-3.2,2.4-4.8c0-0.4,0.4-0.4,0.4-0.8c2.8-4.8,6.4-9.6,10-13.6c0.4-0.4,0.4-0.4,0.8-0.8
		c1.2-1.2,2.4-2.4,3.6-3.6c0.4-0.4,0.4-0.4,0.8-0.8c4.4-4,8.8-7.2,14-10.4c0,0,0,0,0.4,0c1.6-0.8,3.2-1.6,4.8-2.4
		c0.4-0.4,0.8-0.4,1.2-0.8c1.6-0.8,3.2-1.6,4.8-2c0.4,0,0.8-0.4,1.2-0.4c2.4-0.8,5.2-2,8-2.4c1.2-0.4,2.4-0.8,3.6-0.8
		c1.2-0.4,2-0.4,3.2-0.8c1.6-0.4,2.8-0.4,4.4-0.8c0.8,0,1.6-0.4,2.8-0.4c2.4-0.4,4.8-0.4,7.6-0.4c17.6,0,31.2,3.6,40.4,10.4
		c16.4,12.4,41.6,20,65.2,20c8.8,0,16.8-1.2,24-3.2c6.4-1.6,13.6-2.8,23.2-2.8c3.2,0,6.4,0,9.6,0.4c1.2,0,2,0.4,3.2,0.4
		c2,0.4,4,0.4,6,0.8c1.2,0.4,2.4,0.4,3.6,0.8c2,0.4,3.6,0.8,5.6,1.6c1.2,0.4,2.4,0.8,3.6,1.2c2,0.8,4,1.6,6,2.4
		c0.8,0.4,2,0.8,2.8,1.2c2.8,1.2,5.6,2.4,8.4,4c0.4,0.4,1.2,0.8,1.6,1.2c2,1.2,4.4,2.4,6.4,4c0.8,0.4,1.2,0.8,2,1.6
		c2,1.2,4,2.8,5.6,4.4c0.4,0.4,1.2,0.8,1.6,1.6c2,1.6,4,3.6,6,5.6c0.4,0.4,0.8,0.4,0.8,0.8c6.8,6.8,12.4,14.4,17.2,23.2
		c0.4,0.4,0.8,1.2,0.8,1.6c1.2,2,2,4.4,3.2,6.4c0.4,0.8,0.8,1.6,1.2,2.8c0.8,2,1.6,4,2.4,6c0.4,1.2,0.8,2,1.2,3.2
		c0,0.4,0.4,1.2,0.4,1.6c-12,40.8-50.8,72.4-94.8,76.8c-1.2,0-11.2,1.6-27.2,1.6c-31.2,0-77.6-5.6-120.4-31.6
		c-59.2-36-80.8-79.6-87.2-94.8C18.4,115.238,19.2,113.638,20,111.638z M252.4,296.838c-1.2,0-11.2,1.6-27.2,1.6
		c-31.2,0-77.6-5.6-120.4-31.6c-64-39.2-92.8-93.6-92.8-120c0-4.4,0.4-8.8,1.2-13.2c16.8,32.4,48,64.4,86,87.6
		c45.2,27.6,93.6,33.2,126.4,33.2c16.8,0,27.6-1.6,28.8-1.6c41.6-4,78.8-30.4,96.8-66.8c0,2.4,0.4,4.4,0.4,6.8
		C351.2,244.838,307.2,291.638,252.4,296.838z"/>
	<path style="fill:#561900;" d="M117.6,90.838c2.4-2,2.4-5.6,0.4-8s-5.6-2.4-8-0.4l-57.6,53.6c-2.4,2-2.4,5.6-0.4,8
		c1.2,1.2,2.8,1.6,4,1.6s2.8-0.4,4-1.6L117.6,90.838z"/>
	<path style="fill:#561900;" d="M85.6,171.238c1.2,1.2,2.8,1.6,4,1.6s2.8-0.4,4-1.6l58-53.6c2.4-2,2.4-5.6,0.4-8s-5.6-2.4-8-0.4
		l-58,54C83.6,165.238,83.6,168.838,85.6,171.238z"/>
	<path style="fill:#561900;" d="M120.8,200.438c1.2,1.2,2.4,1.6,4,1.6s2.8-0.4,4-1.6l84.4-82.8c2.4-2,2.4-5.6,0-8
		c-2-2.4-5.6-2.4-8,0l-84.4,82.8C118.4,194.438,118.4,198.038,120.8,200.438z"/>
	<path style="fill:#561900;" d="M172.4,212.838c1.2,1.2,2.4,1.6,4,1.6s2.8-0.4,4-1.6l84.4-83.2c2.4-2,2.4-5.6,0-8
		c-2-2.4-5.6-2.4-8,0l-84.4,83.2C170.4,206.838,170.4,210.438,172.4,212.838z"/>
	<path style="fill:#561900;" d="M226.4,227.238c1.2,1.2,2.4,1.6,4,1.6s2.8-0.4,4-1.6l84.4-82.8c2.4-2,2.4-5.6,0-8
		c-2-2.4-5.6-2.4-8,0l-84.4,82.8C224,221.238,224,224.838,226.4,227.238z"/>
</g>
<g>
</g>
<g>
</g>
<g>
</g>
<g>
</g>
<g>
</g>
<g>
</g>
<g>
</g>
<g>
</g>
<g>
</g>
<g>
</g>
<g>
</g>
<g>
</g>
<g>
</g>
<g>
</g>
<g>
</g>
</svg>
